<svg xmlns="http://www.w3.org/2000/svg" width="24.091" height="24.09" viewBox="0 0 24.091 24.09">
  <path id="Icon_awesome-linkedin-in" data-name="Icon awesome-linkedin-in" d="M5.392,24.091H.4V8.007H5.392ZM2.893,5.813a2.906,2.906,0,1,1,2.893-2.92A2.917,2.917,0,0,1,2.893,5.813ZM24.085,24.091H19.1v-7.83C19.1,14.4,19.064,12,16.5,12c-2.6,0-2.995,2.027-2.995,4.124v7.964H8.521V8.007h4.79V10.2h.07a5.248,5.248,0,0,1,4.726-2.6c5.055,0,5.984,3.329,5.984,7.652v8.835Z" transform="translate(0 -0.001)" fill="#fff"/>
</svg>
