<svg xmlns="http://www.w3.org/2000/svg" width="35.577" height="43.379" viewBox="0 0 35.577 43.379">
  <g id="Group_87724" data-name="Group 87724" transform="translate(-9.231 -5)">
    <path id="Path_134220" data-name="Path 134220" d="M33.422,6.162A4.158,4.158,0,0,0,30.478,5H18.859A7.406,7.406,0,0,0,11.5,12.359V41.02a7.406,7.406,0,0,0,7.359,7.359H37.45a7.406,7.406,0,0,0,7.359-7.359V18.711a4.213,4.213,0,0,0-1.317-3.1ZM40.7,16.232H34.816A1.918,1.918,0,0,1,32.88,14.3V8.873ZM42.485,41.02a5.025,5.025,0,0,1-5.035,5.035H18.859a5.025,5.025,0,0,1-5.035-5.035V12.359a5.025,5.025,0,0,1,5.035-5.035h11.7V14.3a4.3,4.3,0,0,0,4.26,4.26h7.669V41.02Z" fill="#707070"/>
    <rect id="Rectangle_28640" data-name="Rectangle 28640" width="18" height="10" rx="3" transform="translate(9.231 27)" fill="#707070"/>
    <g id="Group_87725" data-name="Group 87725" transform="translate(11.484 28.848)">
      <path id="Path_134211" data-name="Path 134211" d="M42.959,132h4.474v1.263l-2.865,3.688h2.967v1.357H42.686V137l2.835-3.649H42.959Z" transform="translate(-42.686 -132.004)" fill="#fff"/>
      <path id="Path_134212" data-name="Path 134212" d="M98.023,132h1.583v6.308H98.023Z" transform="translate(-91.983 -132.004)" fill="#fff"/>
      <path id="Path_134213" data-name="Path 134213" d="M124.695,132h2.628a1.594,1.594,0,0,1,1.286.5,2.151,2.151,0,0,1,.428,1.432,2.206,2.206,0,0,1-.466,1.493,1.78,1.78,0,0,1-1.421.538h-.865v2.341h-1.589V132Zm1.589,2.686h.387a.862.862,0,0,0,.642-.2.7.7,0,0,0,.185-.5.794.794,0,0,0-.16-.5.73.73,0,0,0-.6-.206h-.45v1.4Z" transform="translate(-115.541 -132.004)" fill="#fff"/>
    </g>
  </g>
</svg>
