<svg xmlns="http://www.w3.org/2000/svg" width="114.08" height="113.08" viewBox="0 0 114.08 113.08">
  <g id="Doctor_Registered" data-name="Doctor Registered" transform="translate(0.182 0.589)">
    <ellipse id="Ellipse_7" data-name="Ellipse 7" cx="49.5" cy="49" rx="49.5" ry="49" transform="translate(7.358 6.951)" fill="#fff"/>
    <g id="Group_2276" data-name="Group 2276" transform="translate(0 0)">
      <ellipse id="Ellipse_159" data-name="Ellipse 159" cx="56.5" cy="56" rx="56.5" ry="56" transform="translate(0.358 -0.049)" fill="none" stroke="#fff" stroke-width="1.08"/>
      <circle id="Ellipse_160" data-name="Ellipse 160" cx="36.176" cy="36.176" r="36.176" transform="translate(9.08 36.44) rotate(-22.5)" fill="#e9e9ea"/>
      <rect id="Rectangle_835" data-name="Rectangle 835" width="40.249" height="50.361" rx="1.12" transform="translate(40.145 27.797)" fill="#fff"/>
      <rect id="Rectangle_836" data-name="Rectangle 836" width="40.249" height="50.361" rx="1.12" transform="translate(33.593 32.184)" fill="#fff"/>
      <path id="Path_3407" data-name="Path 3407" d="M1.169,0H36.2a1.169,1.169,0,0,1,1.169,1.169V45.575A1.169,1.169,0,0,1,36.2,46.744H1.169A1.169,1.169,0,0,1,0,45.575V1.169A1.169,1.169,0,0,1,1.169,0Z" transform="translate(28.751 38.052)" fill="#e8705a"/>
      <path id="Path_3404" data-name="Path 3404" d="M61.99,12.33a4.957,4.957,0,0,1,4.928,4.928V58.105A4.928,4.928,0,0,1,61.99,63H61.62a4.957,4.957,0,0,0,.741-2.023,2.849,2.849,0,0,0,2.563-2.849V17.258a2.849,2.849,0,0,0-2.849-2.849H30.744a2.849,2.849,0,0,0-1.225.284H26.669A4.957,4.957,0,0,1,30.8,12.447Zm-6.75,4.5a4.9,4.9,0,0,1,4.871,4.9V62.663A4.9,4.9,0,0,1,55.27,67.5H54.9a5.042,5.042,0,0,0,.712-2.051A2.849,2.849,0,0,0,58.2,62.606V21.735a2.849,2.849,0,0,0-2.851-2.854H24.02a2.849,2.849,0,0,0-1.225.285h-2.85a4.928,4.928,0,0,1,4.131-2.247ZM48.4,21.36a4.9,4.9,0,0,1,4.9,4.9V67.107a4.9,4.9,0,0,1-4.9,4.928H17.069a4.928,4.928,0,0,1-4.9-4.928V26.259a4.9,4.9,0,0,1,4.9-4.9Zm2.847,45.747V26.259A2.849,2.849,0,0,0,48.4,23.411H17.069a2.849,2.849,0,0,0-2.843,2.849V67.107a2.849,2.849,0,0,0,2.849,2.849H48.4a2.849,2.849,0,0,0,2.934-2.849Z" transform="translate(14.757 14.727)" fill="#264488" stroke="#264488" stroke-width="0.28"/>
      <path id="Path_3405" data-name="Path 3405" d="M28.693,21.694h2.854a1.8,1.8,0,0,1,1.88,1.737,1.823,1.823,0,0,1-1.8,1.993H28.784v2.62a1.88,1.88,0,0,1-3.76,0v-2.59H22.46a1.88,1.88,0,0,1,0-3.76h2.507V19.131a1.91,1.91,0,1,1,3.789,0v2.563Z" transform="translate(30.304 23.337)" fill="#264488" stroke="#264488" stroke-width="1"/>
      <path id="Path_2868" data-name="Path 2868" d="M26.4,29.353a6.638,6.638,0,1,0-6.638-6.671h0A6.671,6.671,0,0,0,26.4,29.353Zm0-10.694a4.092,4.092,0,1,1-4.058,4.023h0A4.058,4.058,0,0,1,26.4,18.659Z" transform="translate(17.584 36.9)" fill="#264488" stroke="#264488" stroke-width="0.32"/>
      <path id="Path_2869" data-name="Path 2869" d="M28.908,20.65a9.938,9.938,0,0,0-7.221,3.026A10.728,10.728,0,0,0,18.73,31.2,1.306,1.306,0,0,0,20,32.477H37.816A1.272,1.272,0,0,0,39.088,31.2a10.591,10.591,0,0,0-2.958-7.529,9.868,9.868,0,0,0-7.22-3.026ZM21.38,29.9a8.08,8.08,0,0,1,2.17-4.435,7.6,7.6,0,0,1,10.694,0h0a7.634,7.634,0,0,1,2.17,4.435Z" transform="translate(15.071 46.919)" fill="#264488" stroke="#264488" stroke-width="0.32"/>
    </g>
  </g>
</svg>
